<svg width="80" height="57" viewBox="0 0 80 57" fill="none" xmlns="http://www.w3.org/2000/svg">
<g filter="url(#filter0_dd_2576_11139)">
<rect width="48" height="48" transform="translate(16 3)" fill="white"/>
<g clip-path="url(#clip0_2576_11139)">
<path d="M16 27C16 21.4202 16 18.6303 16.6133 16.3413C18.2777 10.1296 23.1296 5.27774 29.3413 3.61334C31.6303 3 34.4202 3 40 3C45.5798 3 48.3697 3 50.6587 3.61334C56.8704 5.27774 61.7223 10.1296 63.3867 16.3413C64 18.6303 64 21.4202 64 27C64 32.5798 64 35.3697 63.3867 37.6587C61.7223 43.8704 56.8704 48.7223 50.6587 50.3867C48.3697 51 45.5798 51 40 51C34.4202 51 31.6303 51 29.3413 50.3867C23.1296 48.7223 18.2777 43.8704 16.6133 37.6587C16 35.3697 16 32.5798 16 27Z" fill="white"/>
<path d="M16 27C16 21.4202 16 18.6303 16.6133 16.3413C18.2777 10.1296 23.1296 5.27774 29.3413 3.61334C31.6303 3 34.4202 3 40 3C45.5798 3 48.3697 3 50.6587 3.61334C56.8704 5.27774 61.7223 10.1296 63.3867 16.3413C64 18.6303 64 21.4202 64 27C64 32.5798 64 35.3697 63.3867 37.6587C61.7223 43.8704 56.8704 48.7223 50.6587 50.3867C48.3697 51 45.5798 51 40 51C34.4202 51 31.6303 51 29.3413 50.3867C23.1296 48.7223 18.2777 43.8704 16.6133 37.6587C16 35.3697 16 32.5798 16 27Z" fill="url(#paint0_linear_2576_11139)"/>
<path fill-rule="evenodd" clip-rule="evenodd" d="M40 6.05828C28.4342 6.05828 19.0583 15.4342 19.0583 27C19.0583 38.5658 28.4342 47.9418 40 47.9418C51.5658 47.9418 60.9418 38.5658 60.9418 27C60.9418 15.4342 51.5658 6.05828 40 6.05828ZM18.9418 27C18.9418 15.3699 28.3699 5.94177 40 5.94177C51.6302 5.94177 61.0583 15.3699 61.0583 27C61.0583 38.6302 51.6302 48.0583 40 48.0583C28.3699 48.0583 18.9418 38.6302 18.9418 27Z" fill="#D0D5DD"/>
<path fill-rule="evenodd" clip-rule="evenodd" d="M40 21.1169C36.7506 21.1169 34.1165 23.751 34.1165 27.0004C34.1165 30.2497 36.7506 32.8839 40 32.8839C43.2494 32.8839 45.8835 30.2497 45.8835 27.0004C45.8835 23.751 43.2494 21.1169 40 21.1169ZM34 27.0004C34 23.6867 36.6863 21.0004 40 21.0004C43.3137 21.0004 46 23.6867 46 27.0004C46 30.3141 43.3137 33.0004 40 33.0004C36.6863 33.0004 34 30.3141 34 27.0004Z" fill="#D0D5DD"/>
<path fill-rule="evenodd" clip-rule="evenodd" d="M39.9999 22.9802C37.7801 22.9802 35.9805 24.7797 35.9805 26.9996C35.9805 29.2194 37.7801 31.019 39.9999 31.019C42.2198 31.019 44.0194 29.2194 44.0194 26.9996C44.0194 24.7797 42.2198 22.9802 39.9999 22.9802ZM35.864 26.9996C35.864 24.7154 37.7157 22.8636 39.9999 22.8636C42.2841 22.8636 44.1359 24.7154 44.1359 26.9996C44.1359 29.2838 42.2841 31.1355 39.9999 31.1355C37.7157 31.1355 35.864 29.2838 35.864 26.9996Z" fill="#D0D5DD"/>
<path d="M39.9418 3H40.0583V51H39.9418V3Z" fill="#D0D5DD"/>
<path d="M64 26.9414L64 27.0579L16 27.0579L16 26.9414L64 26.9414Z" fill="#D0D5DD"/>
<path d="M55.903 3H56.0195V51H55.903V3Z" fill="#D0D5DD"/>
<path d="M31.9612 3H32.0777V51H31.9612V3Z" fill="#D0D5DD"/>
<path d="M47.9224 3H48.0389V51H47.9224V3Z" fill="#D0D5DD"/>
<path d="M23.9806 3H24.0971V51H23.9806V3Z" fill="#D0D5DD"/>
<path d="M64 42.9023L64 43.0188L16 43.0188L16 42.9023L64 42.9023Z" fill="#D0D5DD"/>
<path d="M64 18.9609L64 19.0774L16 19.0774L16 18.9609L64 18.9609Z" fill="#D0D5DD"/>
<path d="M64 34.9219L64 35.0384L16 35.0384L16 34.9219L64 34.9219Z" fill="#D0D5DD"/>
<path d="M64 10.9805L64 11.097L16 11.097L16 10.9805L64 10.9805Z" fill="#D0D5DD"/>
<g filter="url(#filter1_dd_2576_11139)">
<circle cx="40" cy="27" r="12" fill="url(#paint1_linear_2576_11139)"/>
</g>
<g filter="url(#filter2_b_2576_11139)">
<path d="M16 27H64C64 32.5798 64 35.3697 63.3867 37.6587C61.7223 43.8704 56.8704 48.7223 50.6587 50.3867C48.3697 51 45.5798 51 40 51C34.4202 51 31.6303 51 29.3413 50.3867C23.1296 48.7223 18.2777 43.8704 16.6133 37.6587C16 35.3697 16 32.5798 16 27Z" fill="white" fill-opacity="0.2"/>
</g>
</g>
<path d="M16.15 27C16.15 21.4105 16.1513 18.6452 16.7582 16.3801C18.4088 10.2202 23.2202 5.40876 29.3801 3.75822C31.6452 3.15129 34.4105 3.15 40 3.15C45.5895 3.15 48.3548 3.15129 50.6199 3.75822C56.7798 5.40876 61.5912 10.2202 63.2418 16.3801C63.8487 18.6452 63.85 21.4105 63.85 27C63.85 32.5895 63.8487 35.3548 63.2418 37.6199C61.5912 43.7798 56.7798 48.5912 50.6199 50.2418C48.3548 50.8487 45.5895 50.85 40 50.85C34.4105 50.85 31.6452 50.8487 29.3801 50.2418C23.2202 48.5912 18.4088 43.7798 16.7582 37.6199C16.1513 35.3548 16.15 32.5895 16.15 27Z" stroke="#D0D5DD" stroke-width="0.3"/>
</g>
<defs>
<filter id="filter0_dd_2576_11139" x="11.5" y="0" width="57" height="57" filterUnits="userSpaceOnUse" color-interpolation-filters="sRGB">
<feFlood flood-opacity="0" result="BackgroundImageFix"/>
<feColorMatrix in="SourceAlpha" type="matrix" values="0 0 0 0 0 0 0 0 0 0 0 0 0 0 0 0 0 0 127 0" result="hardAlpha"/>
<feOffset dy="1.5"/>
<feGaussianBlur stdDeviation="1.5"/>
<feColorMatrix type="matrix" values="0 0 0 0 0.0627451 0 0 0 0 0.0941176 0 0 0 0 0.156863 0 0 0 0.06 0"/>
<feBlend mode="normal" in2="BackgroundImageFix" result="effect1_dropShadow_2576_11139"/>
<feColorMatrix in="SourceAlpha" type="matrix" values="0 0 0 0 0 0 0 0 0 0 0 0 0 0 0 0 0 0 127 0" result="hardAlpha"/>
<feOffset dy="1.5"/>
<feGaussianBlur stdDeviation="2.25"/>
<feColorMatrix type="matrix" values="0 0 0 0 0.0627451 0 0 0 0 0.0941176 0 0 0 0 0.156863 0 0 0 0.1 0"/>
<feBlend mode="normal" in2="effect1_dropShadow_2576_11139" result="effect2_dropShadow_2576_11139"/>
<feBlend mode="normal" in="SourceGraphic" in2="effect2_dropShadow_2576_11139" result="shape"/>
</filter>
<filter id="filter1_dd_2576_11139" x="23.5" y="12" width="33" height="33" filterUnits="userSpaceOnUse" color-interpolation-filters="sRGB">
<feFlood flood-opacity="0" result="BackgroundImageFix"/>
<feColorMatrix in="SourceAlpha" type="matrix" values="0 0 0 0 0 0 0 0 0 0 0 0 0 0 0 0 0 0 127 0" result="hardAlpha"/>
<feOffset dy="1.5"/>
<feGaussianBlur stdDeviation="1.5"/>
<feColorMatrix type="matrix" values="0 0 0 0 0.0627451 0 0 0 0 0.0941176 0 0 0 0 0.156863 0 0 0 0.06 0"/>
<feBlend mode="normal" in2="BackgroundImageFix" result="effect1_dropShadow_2576_11139"/>
<feColorMatrix in="SourceAlpha" type="matrix" values="0 0 0 0 0 0 0 0 0 0 0 0 0 0 0 0 0 0 127 0" result="hardAlpha"/>
<feOffset dy="1.5"/>
<feGaussianBlur stdDeviation="2.25"/>
<feColorMatrix type="matrix" values="0 0 0 0 0.0627451 0 0 0 0 0.0941176 0 0 0 0 0.156863 0 0 0 0.1 0"/>
<feBlend mode="normal" in2="effect1_dropShadow_2576_11139" result="effect2_dropShadow_2576_11139"/>
<feBlend mode="normal" in="SourceGraphic" in2="effect2_dropShadow_2576_11139" result="shape"/>
</filter>
<filter id="filter2_b_2576_11139" x="8.5" y="19.5" width="63" height="39" filterUnits="userSpaceOnUse" color-interpolation-filters="sRGB">
<feFlood flood-opacity="0" result="BackgroundImageFix"/>
<feGaussianBlur in="BackgroundImageFix" stdDeviation="3.75"/>
<feComposite in2="SourceAlpha" operator="in" result="effect1_backgroundBlur_2576_11139"/>
<feBlend mode="normal" in="SourceGraphic" in2="effect1_backgroundBlur_2576_11139" result="shape"/>
</filter>
<linearGradient id="paint0_linear_2576_11139" x1="40" y1="3" x2="40" y2="51" gradientUnits="userSpaceOnUse">
<stop stop-color="white"/>
<stop offset="1" stop-color="#D0D5DD"/>
</linearGradient>
<linearGradient id="paint1_linear_2576_11139" x1="34" y1="39" x2="46" y2="15" gradientUnits="userSpaceOnUse">
<stop stop-color="#53389E"/>
<stop offset="1" stop-color="#6941C6"/>
</linearGradient>
<clipPath id="clip0_2576_11139">
<path d="M16 27C16 21.4202 16 18.6303 16.6133 16.3413C18.2777 10.1296 23.1296 5.27774 29.3413 3.61334C31.6303 3 34.4202 3 40 3C45.5798 3 48.3697 3 50.6587 3.61334C56.8704 5.27774 61.7223 10.1296 63.3867 16.3413C64 18.6303 64 21.4202 64 27C64 32.5798 64 35.3697 63.3867 37.6587C61.7223 43.8704 56.8704 48.7223 50.6587 50.3867C48.3697 51 45.5798 51 40 51C34.4202 51 31.6303 51 29.3413 50.3867C23.1296 48.7223 18.2777 43.8704 16.6133 37.6587C16 35.3697 16 32.5798 16 27Z" fill="white"/>
</clipPath>
</defs>
</svg>
