<svg width="29" height="30" viewBox="0 0 29 30" fill="none" xmlns="http://www.w3.org/2000/svg">
<g clip-path="url(#clip0_2585_4527)">
<path d="M18.1294 14.7213C16.865 14.2773 15.5054 14.0358 14.0893 14.0358C12.6732 14.0358 11.3136 14.2773 10.0492 14.7213C9.94049 14.7595 9.88612 14.7786 9.82608 14.8116C9.61273 14.9286 9.44446 15.1661 9.40473 15.4061C9.39355 15.4737 9.39355 15.5411 9.39355 15.6758C9.39355 16.0878 9.39355 16.2938 9.35732 16.4647C9.22067 17.1093 8.71711 17.6129 8.07253 17.7495C7.90161 17.7858 7.6956 17.7858 7.28358 17.7858L7.05393 17.7858C6.42762 17.7858 6.11446 17.7858 5.86124 17.7026C5.35765 17.5374 4.96269 17.1424 4.79741 16.6388C4.7143 16.3856 4.7143 16.0724 4.7143 15.4461L4.7143 15.2604C4.7143 14.6362 4.7143 14.3241 4.80728 13.9928C4.91045 13.6251 5.18099 13.1644 5.4518 12.8952C5.69586 12.6526 5.90936 12.5335 6.33637 12.2953C8.63115 11.0152 11.275 10.2858 14.0893 10.2858C16.9036 10.2858 19.5475 11.0152 21.8422 12.2953C22.2692 12.5335 22.4827 12.6526 22.7268 12.8952C22.9976 13.1644 23.2682 13.6251 23.3713 13.9928C23.4643 14.3241 23.4643 14.6362 23.4643 15.2604L23.4643 15.4461C23.4643 16.0724 23.4643 16.3856 23.3812 16.6388C23.2159 17.1424 22.821 17.5374 22.3174 17.7026C22.0641 17.7858 21.751 17.7858 21.1247 17.7858L20.895 17.7858C20.483 17.7858 20.277 17.7858 20.1061 17.7495C19.4615 17.6129 18.9579 17.1093 18.8213 16.4647C18.7851 16.2938 18.7851 16.0878 18.7851 15.6758C18.7851 15.5411 18.7851 15.4737 18.7739 15.4061C18.7341 15.1661 18.5659 14.9286 18.3525 14.8116C18.2925 14.7786 18.2381 14.7595 18.1294 14.7213Z" stroke="white" stroke-width="1.66667" stroke-linecap="round" stroke-linejoin="round"/>
</g>
<defs>
<clipPath id="clip0_2585_4527">
<rect width="20" height="20" fill="white" transform="translate(28.2843 15) rotate(135)"/>
</clipPath>
</defs>
</svg>
